# xmcd
#
# Track frame offsets:
#	150
#	26302
#	50235
#	76233
#	110635
#	119439
#	137940
#	162988
#	192122
#	218664
#	247485
#	270502
#	296824
#	325590
#
# Disc length: 4725 seconds
#
# Revision: 0
# Processed by: cddbd v1.5.2PL0 Copyright (c) Steve Scherf et al.
# Submitted via: audiograbber 1.83.01
#
DISCID=d412730e
DTITLE=Andreas Franz - Syndikat der Spinne
DYEAR=2002
DGENRE=Hörbuch
TTITLE0=178
TTITLE1=179
TTITLE2=180
TTITLE3=181
TTITLE4=182
TTITLE5=183
TTITLE6=184
TTITLE7=185
TTITLE8=186
TTITLE9=187
TTITLE10=188
TTITLE11=189
TTITLE12=190
TTITLE13=191
EXTD=
EXTT0=
EXTT1=
EXTT2=
EXTT3=
EXTT4=
EXTT5=
EXTT6=
EXTT7=
EXTT8=
EXTT9=
EXTT10=
EXTT11=
EXTT12=
EXTT13=
PLAYORDER=
